<svg width="164" height="30" viewBox="0 0 164 30" fill="none" xmlns="http://www.w3.org/2000/svg">
    <path d="M160.354 8.3645V13.9203H153.014V8.3645H149.403V23.0492H153.014V17.1203H160.354V23.0492H163.985V8.3645H160.354Z" fill="white"/>
    <path fill-rule="evenodd" clip-rule="evenodd" d="M97.1398 8.03076C98.2986 8.03076 99.5154 8.67861 100.114 10.0136L106.024 23.0492H102.181L100.887 19.9473H93.3929L92.0989 23.0492H88.2555L94.1655 10.0136C94.7642 8.67861 95.981 8.03076 97.1398 8.03076ZM96.8501 11.6823L94.629 17.0025H99.6506L97.4295 11.6823C97.3716 11.5056 97.2364 11.4663 97.1398 11.4663C97.0432 11.4663 96.9273 11.5252 96.8501 11.6823Z" fill="white"/>
    <path d="M57.0638 5.71411C55.3642 5.71411 54.2826 6.63681 53.4907 8.48221L48.7782 19.5153L44.0656 8.48221C43.2738 6.63681 42.1922 5.71411 40.4926 5.71411C38.9089 5.71411 37.2672 6.87239 37.2672 9.36565V23.0491H40.8789V9.75828L45.6301 20.7129C46.2674 22.2442 47.291 23.2061 48.7782 23.2061C50.2653 23.2061 51.289 22.2442 51.9263 20.7129L56.6775 9.75828V23.0491H60.2892V9.38528C60.2892 6.87239 58.6475 5.71411 57.0638 5.71411Z" fill="white"/>
    <path d="M66.6242 19.9473C66.4504 19.9473 66.3152 19.8099 66.3152 19.6332V17.0222H75.3347V14.0185H66.3152V11.7805C66.3152 11.6038 66.4504 11.4663 66.6242 11.4663H75.5471V8.3645H64.8473C63.5919 8.3645 62.7035 9.42462 62.7035 10.5436V20.8308C62.7035 21.9498 63.6112 23.0099 64.8473 23.0099H75.5471V19.9081H66.6242V19.9473Z" fill="white"/>
    <path d="M81.6888 23.0491V11.8C81.6888 11.6233 81.824 11.4859 81.9978 11.4859H90.9208V8.38403H80.221C78.9656 8.38403 78.0771 9.44416 78.0771 10.5632V23.0491H81.6888Z" fill="white"/>
    <path fill-rule="evenodd" clip-rule="evenodd" d="M139.36 8.14844C144.825 8.14844 147.008 10.5435 147.008 15.6871C147.008 20.7521 144.787 23.1865 139.321 23.1865H138.124C132.658 23.1865 130.437 20.7521 130.437 15.6871C130.437 10.5435 132.6 8.14844 138.085 8.14844H139.36ZM138.143 20.1435H139.302C142.295 20.1435 143.493 18.7693 143.493 15.6871V15.6675C143.493 12.6834 142.373 11.211 139.302 11.211H138.143C134.975 11.211 133.952 12.6834 133.952 15.6675V15.6871C133.952 18.7693 135.13 20.1435 138.143 20.1435Z" fill="white"/>
    <path fill-rule="evenodd" clip-rule="evenodd" d="M113.189 6.06763H120.355C125.685 6.06763 127.829 8.81609 127.849 13.6063C127.849 14.3523 127.791 15.0394 127.694 15.6873C127.134 19.0836 125.164 21.1646 120.162 21.1646H118.597V23.0492H114.986V21.1646H113.402C108.4 21.1646 106.43 19.0836 105.87 15.6873C105.754 15.0394 105.715 14.3523 105.715 13.6063C105.715 8.81609 107.84 6.06763 113.189 6.06763ZM114.966 18.0627H113.305C110.853 18.0627 109.983 17.14 109.443 15.6873C109.23 15.1179 109.23 14.4112 109.23 13.6063C109.23 10.4848 110.659 9.14983 112.745 9.14983H114.966V18.0627ZM124.102 15.6873C123.561 17.14 122.673 18.0627 120.239 18.0627H118.578V9.14983H120.799C122.885 9.14983 124.314 10.4652 124.314 13.6063C124.314 14.4112 124.314 15.1179 124.102 15.6873Z" fill="white"/>
    <path fill-rule="evenodd" clip-rule="evenodd" d="M17.2776 15.5693V0.393799C24.4237 1.27723 29.9667 7.48092 29.986 14.9803C29.986 23.1079 23.4966 29.7042 15.5007 29.7042C15.0565 29.7042 14.6123 29.6846 14.1681 29.6453V16.9239C14.1681 16.8453 14.226 16.7668 14.3226 16.7668H16.0995C16.7368 16.7668 17.2776 16.2367 17.2776 15.5693ZM16.9686 23.0294C15.9643 23.0294 15.1531 22.2048 15.1531 21.184C15.1531 20.1631 15.9643 19.3386 16.9686 19.3386C17.9729 19.3386 18.7841 20.1631 18.7841 21.184C18.7841 22.2048 17.9729 23.0294 16.9686 23.0294ZM19.4021 21.184C19.4021 22.2048 20.2133 23.0294 21.2176 23.0294C22.2219 23.0294 23.0331 22.2048 23.0331 21.184C23.0331 20.1631 22.2219 19.3386 21.2176 19.3386C20.2133 19.3386 19.4021 20.1631 19.4021 21.184ZM23.6511 21.184C23.6511 22.2048 24.4623 23.0294 25.4666 23.0294C26.4709 23.0294 27.2821 22.2048 27.2821 21.184C27.2821 20.1631 26.4709 19.3386 25.4666 19.3386C24.4623 19.3386 23.6511 20.1631 23.6511 21.184Z" fill="white"/>
    <path fill-rule="evenodd" clip-rule="evenodd" d="M0.996094 15C0.996094 6.87244 7.4855 0.276123 15.4814 0.276123H15.52V14.843C15.52 14.9412 15.4428 15 15.3655 15H14.1487H13.55C12.932 15.0197 12.4298 15.5497 12.4105 16.178V29.3902C5.88247 27.9571 0.996094 22.0675 0.996094 15ZM10.8847 10.5632C10.8847 11.5841 11.6959 12.4086 12.7002 12.4086C13.7045 12.4086 14.5157 11.5841 14.5157 10.5632C14.5157 9.54238 13.7045 8.71784 12.7002 8.71784C11.6959 8.71784 10.8847 9.54238 10.8847 10.5632Z" fill="white"/>
</svg>