<svg width="18" height="20" viewBox="0 0 18 20" fill="none" xmlns="http://www.w3.org/2000/svg">
<path d="M17.3999 8.79977C17.3879 6.94224 16.7605 5.14109 15.6159 3.67808C14.4713 2.21507 12.874 1.17274 11.074 0.714131C9.27389 0.255525 7.37258 0.406521 5.66747 1.1435C3.96235 1.88047 2.54962 3.16186 1.65027 4.78719C0.750914 6.41253 0.415678 8.29013 0.697001 10.1263C0.978325 11.9624 1.86034 13.6535 3.20506 14.935C4.54978 16.2165 6.28136 17.0161 8.12891 17.2088C9.97646 17.4015 11.8358 16.9763 13.4159 15.9998L16.4039 19.5998L17.3279 18.8318L14.3639 15.2318C15.3097 14.447 16.0717 13.4643 16.5963 12.353C17.1209 11.2416 17.3952 10.0287 17.3999 8.79977ZM1.79993 8.79977C1.79993 7.37574 2.22221 5.9837 3.01335 4.79966C3.8045 3.61563 4.92899 2.69279 6.24461 2.14784C7.56024 1.60288 9.00792 1.4603 10.4046 1.73811C11.8012 2.01593 13.0842 2.70166 14.0911 3.7086C15.098 4.71554 15.7838 5.99845 16.0616 7.39512C16.3394 8.79178 16.1968 10.2395 15.6519 11.5551C15.1069 12.8707 14.1841 13.9952 13 14.7863C11.816 15.5775 10.424 15.9998 8.99994 15.9998C7.09038 15.9998 5.25903 15.2412 3.90877 13.8909C2.5585 12.5407 1.79993 10.7093 1.79993 8.79977Z" fill="#999999"/>
</svg>
